# xmcd
#
# Track frame offsets: 
#        150
#        20408
#        45535
#        60815
#        79029
#        94099
#        111783
#        128660
#        143716
#        161209
#
# Disc length: 2390 seconds
#
# Revision: 0
# Processed by: cddbd v1.5.2PL0 Copyright (c) Steve Scherf et al.
# Submitted via: ExactAudioCopyFreeDBPlugin 1.0
#
DISCID=7509540a
DTITLE=Sugar Thieves - Sugar Thieves
DYEAR=2011
DGENRE=Blues
TTITLE0=Come Now
TTITLE1=Bird's Gonna Sing
TTITLE2=Cajun Cafe
TTITLE3=I've Got That Feelin'
TTITLE4=The Flood
TTITLE5=Light Up Ahead
TTITLE6=Real Live Wire
TTITLE7=Down
TTITLE8=Testimonial
TTITLE9=Broke Down and Lonesome Again
EXTD=
EXTT0=
EXTT1=
EXTT2=
EXTT3=
EXTT4=
EXTT5=
EXTT6=
EXTT7=
EXTT8=
EXTT9=
PLAYORDER=
